<mxfile host="app.diagrams.net" modified="2021-10-24T12:43:34.727Z" agent="5.0 (Windows NT 10.0; Win64; x64) AppleWebKit/537.36 (KHTML, like Gecko) Chrome/94.0.4606.81 Safari/537.36" etag="qwusFlWqC0legoVWZvj_" version="15.5.9" type="github">
  <diagram id="C5RBs43oDa-KdzZeNtuy" name="Page-1">
    <mxGraphModel dx="865" dy="476" grid="1" gridSize="10" guides="1" tooltips="1" connect="1" arrows="1" fold="1" page="1" pageScale="1" pageWidth="827" pageHeight="1169" math="0" shadow="0">
      <root>
        <mxCell id="WIyWlLk6GJQsqaUBKTNV-0" />
        <mxCell id="WIyWlLk6GJQsqaUBKTNV-1" parent="WIyWlLk6GJQsqaUBKTNV-0" />
        <mxCell id="dxvuUIxOSzqGGPdhFE3g-0" value="Mulai" style="ellipse;whiteSpace=wrap;html=1;" vertex="1" parent="WIyWlLk6GJQsqaUBKTNV-1">
          <mxGeometry x="354" y="10" width="120" height="80" as="geometry" />
        </mxCell>
        <mxCell id="dxvuUIxOSzqGGPdhFE3g-1" value="char ulangi&lt;br&gt;int counter&lt;br&gt;int nilai&lt;br&gt;string grade A,B,C D" style="shape=parallelogram;perimeter=parallelogramPerimeter;whiteSpace=wrap;html=1;fixedSize=1;" vertex="1" parent="WIyWlLk6GJQsqaUBKTNV-1">
          <mxGeometry x="320.5" y="110" width="187" height="60" as="geometry" />
        </mxCell>
        <mxCell id="dxvuUIxOSzqGGPdhFE3g-2" value="andi 80&lt;br&gt;susi 70&lt;br&gt;budi 60&lt;br&gt;ani 50" style="rounded=0;whiteSpace=wrap;html=1;" vertex="1" parent="WIyWlLk6GJQsqaUBKTNV-1">
          <mxGeometry x="354" y="190" width="120" height="60" as="geometry" />
        </mxCell>
        <mxCell id="dxvuUIxOSzqGGPdhFE3g-15" value="n" style="edgeStyle=orthogonalEdgeStyle;rounded=0;orthogonalLoop=1;jettySize=auto;html=1;exitX=0.5;exitY=1;exitDx=0;exitDy=0;entryX=0.5;entryY=0;entryDx=0;entryDy=0;" edge="1" parent="WIyWlLk6GJQsqaUBKTNV-1" source="dxvuUIxOSzqGGPdhFE3g-3" target="dxvuUIxOSzqGGPdhFE3g-7">
          <mxGeometry relative="1" as="geometry" />
        </mxCell>
        <mxCell id="dxvuUIxOSzqGGPdhFE3g-17" value="Y" style="edgeStyle=orthogonalEdgeStyle;rounded=0;orthogonalLoop=1;jettySize=auto;html=1;exitX=1;exitY=0.5;exitDx=0;exitDy=0;entryX=0;entryY=0.5;entryDx=0;entryDy=0;" edge="1" parent="WIyWlLk6GJQsqaUBKTNV-1" source="dxvuUIxOSzqGGPdhFE3g-3" target="dxvuUIxOSzqGGPdhFE3g-4">
          <mxGeometry relative="1" as="geometry" />
        </mxCell>
        <mxCell id="dxvuUIxOSzqGGPdhFE3g-3" value="nilai &amp;gt;=90" style="rhombus;whiteSpace=wrap;html=1;" vertex="1" parent="WIyWlLk6GJQsqaUBKTNV-1">
          <mxGeometry x="370" y="265" width="80" height="70" as="geometry" />
        </mxCell>
        <mxCell id="dxvuUIxOSzqGGPdhFE3g-32" value="Y" style="edgeStyle=orthogonalEdgeStyle;rounded=0;orthogonalLoop=1;jettySize=auto;html=1;exitX=1;exitY=0.75;exitDx=0;exitDy=0;entryX=1;entryY=0.5;entryDx=0;entryDy=0;" edge="1" parent="WIyWlLk6GJQsqaUBKTNV-1" source="dxvuUIxOSzqGGPdhFE3g-4" target="dxvuUIxOSzqGGPdhFE3g-31">
          <mxGeometry relative="1" as="geometry">
            <mxPoint x="680" y="780" as="targetPoint" />
            <Array as="points">
              <mxPoint x="587" y="300" />
              <mxPoint x="710" y="300" />
              <mxPoint x="710" y="840" />
            </Array>
          </mxGeometry>
        </mxCell>
        <mxCell id="dxvuUIxOSzqGGPdhFE3g-4" value="A" style="shape=parallelogram;perimeter=parallelogramPerimeter;whiteSpace=wrap;html=1;fixedSize=1;" vertex="1" parent="WIyWlLk6GJQsqaUBKTNV-1">
          <mxGeometry x="520" y="280" width="80" height="40" as="geometry" />
        </mxCell>
        <mxCell id="dxvuUIxOSzqGGPdhFE3g-16" value="n" style="edgeStyle=orthogonalEdgeStyle;rounded=0;orthogonalLoop=1;jettySize=auto;html=1;exitX=0.5;exitY=1;exitDx=0;exitDy=0;entryX=0.5;entryY=0;entryDx=0;entryDy=0;" edge="1" parent="WIyWlLk6GJQsqaUBKTNV-1" source="dxvuUIxOSzqGGPdhFE3g-7" target="dxvuUIxOSzqGGPdhFE3g-8">
          <mxGeometry relative="1" as="geometry" />
        </mxCell>
        <mxCell id="dxvuUIxOSzqGGPdhFE3g-25" value="Y" style="edgeStyle=orthogonalEdgeStyle;rounded=0;orthogonalLoop=1;jettySize=auto;html=1;exitX=1;exitY=0.5;exitDx=0;exitDy=0;entryX=0;entryY=0.5;entryDx=0;entryDy=0;" edge="1" parent="WIyWlLk6GJQsqaUBKTNV-1" source="dxvuUIxOSzqGGPdhFE3g-7" target="dxvuUIxOSzqGGPdhFE3g-18">
          <mxGeometry relative="1" as="geometry" />
        </mxCell>
        <mxCell id="dxvuUIxOSzqGGPdhFE3g-7" value="nilai &amp;gt;=80" style="rhombus;whiteSpace=wrap;html=1;" vertex="1" parent="WIyWlLk6GJQsqaUBKTNV-1">
          <mxGeometry x="370" y="355" width="80" height="70" as="geometry" />
        </mxCell>
        <mxCell id="dxvuUIxOSzqGGPdhFE3g-26" value="Y" style="edgeStyle=orthogonalEdgeStyle;rounded=0;orthogonalLoop=1;jettySize=auto;html=1;exitX=1;exitY=0.5;exitDx=0;exitDy=0;entryX=0;entryY=0.5;entryDx=0;entryDy=0;" edge="1" parent="WIyWlLk6GJQsqaUBKTNV-1" target="dxvuUIxOSzqGGPdhFE3g-19">
          <mxGeometry relative="1" as="geometry">
            <mxPoint x="450" y="478" as="sourcePoint" />
          </mxGeometry>
        </mxCell>
        <mxCell id="dxvuUIxOSzqGGPdhFE3g-38" value="n" style="edgeStyle=orthogonalEdgeStyle;rounded=0;orthogonalLoop=1;jettySize=auto;html=1;exitX=0.5;exitY=1;exitDx=0;exitDy=0;entryX=0.5;entryY=0;entryDx=0;entryDy=0;" edge="1" parent="WIyWlLk6GJQsqaUBKTNV-1" target="dxvuUIxOSzqGGPdhFE3g-9">
          <mxGeometry relative="1" as="geometry">
            <mxPoint x="410" y="513" as="sourcePoint" />
          </mxGeometry>
        </mxCell>
        <mxCell id="dxvuUIxOSzqGGPdhFE3g-8" value="nilai &amp;gt;=70" style="rhombus;whiteSpace=wrap;html=1;" vertex="1" parent="WIyWlLk6GJQsqaUBKTNV-1">
          <mxGeometry x="372" y="442" width="80" height="70" as="geometry" />
        </mxCell>
        <mxCell id="dxvuUIxOSzqGGPdhFE3g-27" value="Y" style="edgeStyle=orthogonalEdgeStyle;rounded=0;orthogonalLoop=1;jettySize=auto;html=1;exitX=1;exitY=0.5;exitDx=0;exitDy=0;entryX=0;entryY=0.5;entryDx=0;entryDy=0;" edge="1" parent="WIyWlLk6GJQsqaUBKTNV-1" target="dxvuUIxOSzqGGPdhFE3g-20">
          <mxGeometry relative="1" as="geometry">
            <mxPoint x="453" y="571" as="sourcePoint" />
          </mxGeometry>
        </mxCell>
        <mxCell id="dxvuUIxOSzqGGPdhFE3g-39" value="n" style="edgeStyle=orthogonalEdgeStyle;rounded=0;orthogonalLoop=1;jettySize=auto;html=1;entryX=0.5;entryY=0;entryDx=0;entryDy=0;" edge="1" parent="WIyWlLk6GJQsqaUBKTNV-1" source="dxvuUIxOSzqGGPdhFE3g-9" target="dxvuUIxOSzqGGPdhFE3g-10">
          <mxGeometry relative="1" as="geometry">
            <mxPoint x="413" y="614" as="sourcePoint" />
          </mxGeometry>
        </mxCell>
        <mxCell id="dxvuUIxOSzqGGPdhFE3g-9" value="nilai &amp;gt;=60" style="rhombus;whiteSpace=wrap;html=1;" vertex="1" parent="WIyWlLk6GJQsqaUBKTNV-1">
          <mxGeometry x="373" y="535" width="80" height="70" as="geometry" />
        </mxCell>
        <mxCell id="dxvuUIxOSzqGGPdhFE3g-28" value="Y" style="edgeStyle=orthogonalEdgeStyle;rounded=0;orthogonalLoop=1;jettySize=auto;html=1;exitX=1;exitY=0.5;exitDx=0;exitDy=0;entryX=0;entryY=0.5;entryDx=0;entryDy=0;" edge="1" parent="WIyWlLk6GJQsqaUBKTNV-1" source="dxvuUIxOSzqGGPdhFE3g-10" target="dxvuUIxOSzqGGPdhFE3g-21">
          <mxGeometry relative="1" as="geometry" />
        </mxCell>
        <mxCell id="dxvuUIxOSzqGGPdhFE3g-40" value="n" style="edgeStyle=orthogonalEdgeStyle;rounded=0;orthogonalLoop=1;jettySize=auto;html=1;exitX=0.5;exitY=1;exitDx=0;exitDy=0;entryX=0.5;entryY=0;entryDx=0;entryDy=0;" edge="1" parent="WIyWlLk6GJQsqaUBKTNV-1" source="dxvuUIxOSzqGGPdhFE3g-10" target="dxvuUIxOSzqGGPdhFE3g-22">
          <mxGeometry relative="1" as="geometry">
            <mxPoint x="413" y="710" as="targetPoint" />
          </mxGeometry>
        </mxCell>
        <mxCell id="dxvuUIxOSzqGGPdhFE3g-10" value="nilai &amp;gt;=50" style="rhombus;whiteSpace=wrap;html=1;" vertex="1" parent="WIyWlLk6GJQsqaUBKTNV-1">
          <mxGeometry x="373" y="624" width="80" height="70" as="geometry" />
        </mxCell>
        <mxCell id="dxvuUIxOSzqGGPdhFE3g-33" value="Y" style="edgeStyle=orthogonalEdgeStyle;rounded=0;orthogonalLoop=1;jettySize=auto;html=1;exitX=1;exitY=0.5;exitDx=0;exitDy=0;" edge="1" parent="WIyWlLk6GJQsqaUBKTNV-1" source="dxvuUIxOSzqGGPdhFE3g-18">
          <mxGeometry relative="1" as="geometry">
            <mxPoint x="710" y="390" as="targetPoint" />
          </mxGeometry>
        </mxCell>
        <mxCell id="dxvuUIxOSzqGGPdhFE3g-18" value="B+" style="shape=parallelogram;perimeter=parallelogramPerimeter;whiteSpace=wrap;html=1;fixedSize=1;" vertex="1" parent="WIyWlLk6GJQsqaUBKTNV-1">
          <mxGeometry x="520" y="370" width="80" height="40" as="geometry" />
        </mxCell>
        <mxCell id="dxvuUIxOSzqGGPdhFE3g-34" value="Y" style="edgeStyle=orthogonalEdgeStyle;rounded=0;orthogonalLoop=1;jettySize=auto;html=1;exitX=1;exitY=0.5;exitDx=0;exitDy=0;" edge="1" parent="WIyWlLk6GJQsqaUBKTNV-1" source="dxvuUIxOSzqGGPdhFE3g-19">
          <mxGeometry relative="1" as="geometry">
            <mxPoint x="710" y="477.83333333333337" as="targetPoint" />
          </mxGeometry>
        </mxCell>
        <mxCell id="dxvuUIxOSzqGGPdhFE3g-19" value="B" style="shape=parallelogram;perimeter=parallelogramPerimeter;whiteSpace=wrap;html=1;fixedSize=1;" vertex="1" parent="WIyWlLk6GJQsqaUBKTNV-1">
          <mxGeometry x="520" y="458" width="80" height="40" as="geometry" />
        </mxCell>
        <mxCell id="dxvuUIxOSzqGGPdhFE3g-35" value="Y" style="edgeStyle=orthogonalEdgeStyle;rounded=0;orthogonalLoop=1;jettySize=auto;html=1;exitX=1;exitY=0.5;exitDx=0;exitDy=0;" edge="1" parent="WIyWlLk6GJQsqaUBKTNV-1" source="dxvuUIxOSzqGGPdhFE3g-20">
          <mxGeometry relative="1" as="geometry">
            <mxPoint x="709" y="570.8333333333334" as="targetPoint" />
          </mxGeometry>
        </mxCell>
        <mxCell id="dxvuUIxOSzqGGPdhFE3g-20" value="C" style="shape=parallelogram;perimeter=parallelogramPerimeter;whiteSpace=wrap;html=1;fixedSize=1;" vertex="1" parent="WIyWlLk6GJQsqaUBKTNV-1">
          <mxGeometry x="519" y="551" width="80" height="40" as="geometry" />
        </mxCell>
        <mxCell id="dxvuUIxOSzqGGPdhFE3g-36" value="Y" style="edgeStyle=orthogonalEdgeStyle;rounded=0;orthogonalLoop=1;jettySize=auto;html=1;exitX=1;exitY=0.5;exitDx=0;exitDy=0;" edge="1" parent="WIyWlLk6GJQsqaUBKTNV-1" source="dxvuUIxOSzqGGPdhFE3g-21">
          <mxGeometry relative="1" as="geometry">
            <mxPoint x="709" y="658.8333333333335" as="targetPoint" />
          </mxGeometry>
        </mxCell>
        <mxCell id="dxvuUIxOSzqGGPdhFE3g-21" value="D" style="shape=parallelogram;perimeter=parallelogramPerimeter;whiteSpace=wrap;html=1;fixedSize=1;" vertex="1" parent="WIyWlLk6GJQsqaUBKTNV-1">
          <mxGeometry x="519" y="639" width="80" height="40" as="geometry" />
        </mxCell>
        <mxCell id="dxvuUIxOSzqGGPdhFE3g-42" value="n" style="edgeStyle=orthogonalEdgeStyle;rounded=0;orthogonalLoop=1;jettySize=auto;html=1;exitX=0.5;exitY=1;exitDx=0;exitDy=0;entryX=0.5;entryY=0;entryDx=0;entryDy=0;" edge="1" parent="WIyWlLk6GJQsqaUBKTNV-1" source="dxvuUIxOSzqGGPdhFE3g-22" target="dxvuUIxOSzqGGPdhFE3g-31">
          <mxGeometry relative="1" as="geometry" />
        </mxCell>
        <mxCell id="dxvuUIxOSzqGGPdhFE3g-22" value="E" style="shape=parallelogram;perimeter=parallelogramPerimeter;whiteSpace=wrap;html=1;fixedSize=1;" vertex="1" parent="WIyWlLk6GJQsqaUBKTNV-1">
          <mxGeometry x="373" y="730" width="80" height="40" as="geometry" />
        </mxCell>
        <mxCell id="dxvuUIxOSzqGGPdhFE3g-31" value="Grade" style="shape=parallelogram;perimeter=parallelogramPerimeter;whiteSpace=wrap;html=1;fixedSize=1;" vertex="1" parent="WIyWlLk6GJQsqaUBKTNV-1">
          <mxGeometry x="367" y="820" width="94" height="40" as="geometry" />
        </mxCell>
      </root>
    </mxGraphModel>
  </diagram>
</mxfile>
